<svg width="121" height="23" viewBox="0 0 121 23" fill="none" xmlns="http://www.w3.org/2000/svg">
    <path
        d="M12.1306 22.059C9.60221 22.059 7.42935 21.6331 5.61204 20.7813C3.81449 19.9101 2.43176 18.6614 1.46385 17.0352C0.51569 15.409 0.0416107 13.4537 0.0416107 11.1693C0.0416107 8.88486 0.505813 6.93924 1.43422 5.3324C2.38238 3.70621 3.73548 2.45752 5.49352 1.58635C7.25157 0.71517 9.35529 0.279583 11.8047 0.279583C13.1677 0.279583 14.4319 0.415099 15.5973 0.686132C16.7825 0.957164 17.8492 1.36371 18.7974 1.90578L17.5529 6.55205C16.822 6.10678 15.9233 5.74863 14.8566 5.4776C13.8097 5.20656 12.7924 5.07105 11.8047 5.07105C10.5998 5.07105 9.58246 5.30336 8.75282 5.76799C7.94293 6.23262 7.3207 6.91988 6.88613 7.82977C6.47131 8.72031 6.2639 9.83348 6.2639 11.1693C6.2639 12.5244 6.48119 13.657 6.91576 14.5669C7.35033 15.4574 8.00219 16.135 8.87134 16.5996C9.74048 17.0449 10.8269 17.2675 12.1306 17.2675C12.7035 17.2675 13.1973 17.2191 13.6121 17.1223C14.0467 17.0255 14.4912 16.861 14.9455 16.6286L14.264 17.9644V13.6086H9.5232V8.81711H20.19V20.3166C19.1035 20.8781 17.8591 21.3136 16.4566 21.6234C15.0541 21.9138 13.6121 22.059 12.1306 22.059Z"
        fill="#8009A9" />
    <path
        d="M12.1306 22.059C9.60221 22.059 7.42935 21.6331 5.61204 20.7813C3.81449 19.9101 2.43176 18.6614 1.46385 17.0352C0.51569 15.409 0.0416107 13.4537 0.0416107 11.1693C0.0416107 8.88486 0.505813 6.93924 1.43422 5.3324C2.38238 3.70621 3.73548 2.45752 5.49352 1.58635C7.25157 0.71517 9.35529 0.279583 11.8047 0.279583C13.1677 0.279583 14.4319 0.415099 15.5973 0.686132C16.7825 0.957164 17.8492 1.36371 18.7974 1.90578L17.5529 6.55205C16.822 6.10678 15.9233 5.74863 14.8566 5.4776C13.8097 5.20656 12.7924 5.07105 11.8047 5.07105C10.5998 5.07105 9.58246 5.30336 8.75282 5.76799C7.94293 6.23262 7.3207 6.91988 6.88613 7.82977C6.47131 8.72031 6.2639 9.83348 6.2639 11.1693C6.2639 12.5244 6.48119 13.657 6.91576 14.5669C7.35033 15.4574 8.00219 16.135 8.87134 16.5996C9.74048 17.0449 10.8269 17.2675 12.1306 17.2675C12.7035 17.2675 13.1973 17.2191 13.6121 17.1223C14.0467 17.0255 14.4912 16.861 14.9455 16.6286L14.264 17.9644V13.6086H9.5232V8.81711H20.19V20.3166C19.1035 20.8781 17.8591 21.3136 16.4566 21.6234C15.0541 21.9138 13.6121 22.059 12.1306 22.059Z"
        fill="url(#paint0_linear_1_264)" />
    <path
        d="M12.1306 22.059C9.60221 22.059 7.42935 21.6331 5.61204 20.7813C3.81449 19.9101 2.43176 18.6614 1.46385 17.0352C0.51569 15.409 0.0416107 13.4537 0.0416107 11.1693C0.0416107 8.88486 0.505813 6.93924 1.43422 5.3324C2.38238 3.70621 3.73548 2.45752 5.49352 1.58635C7.25157 0.71517 9.35529 0.279583 11.8047 0.279583C13.1677 0.279583 14.4319 0.415099 15.5973 0.686132C16.7825 0.957164 17.8492 1.36371 18.7974 1.90578L17.5529 6.55205C16.822 6.10678 15.9233 5.74863 14.8566 5.4776C13.8097 5.20656 12.7924 5.07105 11.8047 5.07105C10.5998 5.07105 9.58246 5.30336 8.75282 5.76799C7.94293 6.23262 7.3207 6.91988 6.88613 7.82977C6.47131 8.72031 6.2639 9.83348 6.2639 11.1693C6.2639 12.5244 6.48119 13.657 6.91576 14.5669C7.35033 15.4574 8.00219 16.135 8.87134 16.5996C9.74048 17.0449 10.8269 17.2675 12.1306 17.2675C12.7035 17.2675 13.1973 17.2191 13.6121 17.1223C14.0467 17.0255 14.4912 16.861 14.9455 16.6286L14.264 17.9644V13.6086H9.5232V8.81711H20.19V20.3166C19.1035 20.8781 17.8591 21.3136 16.4566 21.6234C15.0541 21.9138 13.6121 22.059 12.1306 22.059Z"
        fill="url(#paint1_linear_1_264)" />
    <path
        d="M12.1306 22.059C9.60221 22.059 7.42935 21.6331 5.61204 20.7813C3.81449 19.9101 2.43176 18.6614 1.46385 17.0352C0.51569 15.409 0.0416107 13.4537 0.0416107 11.1693C0.0416107 8.88486 0.505813 6.93924 1.43422 5.3324C2.38238 3.70621 3.73548 2.45752 5.49352 1.58635C7.25157 0.71517 9.35529 0.279583 11.8047 0.279583C13.1677 0.279583 14.4319 0.415099 15.5973 0.686132C16.7825 0.957164 17.8492 1.36371 18.7974 1.90578L17.5529 6.55205C16.822 6.10678 15.9233 5.74863 14.8566 5.4776C13.8097 5.20656 12.7924 5.07105 11.8047 5.07105C10.5998 5.07105 9.58246 5.30336 8.75282 5.76799C7.94293 6.23262 7.3207 6.91988 6.88613 7.82977C6.47131 8.72031 6.2639 9.83348 6.2639 11.1693C6.2639 12.5244 6.48119 13.657 6.91576 14.5669C7.35033 15.4574 8.00219 16.135 8.87134 16.5996C9.74048 17.0449 10.8269 17.2675 12.1306 17.2675C12.7035 17.2675 13.1973 17.2191 13.6121 17.1223C14.0467 17.0255 14.4912 16.861 14.9455 16.6286L14.264 17.9644V13.6086H9.5232V8.81711H20.19V20.3166C19.1035 20.8781 17.8591 21.3136 16.4566 21.6234C15.0541 21.9138 13.6121 22.059 12.1306 22.059Z"
        fill="url(#paint2_linear_1_264)" />
    <path d="M23.4713 21.7686V0.569975H29.5454V16.8319H39.7677V21.7686H23.4713Z" fill="#8009A9" />
    <path d="M23.4713 21.7686V0.569975H29.5454V16.8319H39.7677V21.7686H23.4713Z"
        fill="url(#paint3_linear_1_264)" />
    <path d="M23.4713 21.7686V0.569975H29.5454V16.8319H39.7677V21.7686H23.4713Z"
        fill="url(#paint4_linear_1_264)" />
    <path d="M23.4713 21.7686V0.569975H29.5454V16.8319H39.7677V21.7686H23.4713Z"
        fill="url(#paint5_linear_1_264)" />
    <path
        d="M51.1162 22.059C48.7656 22.059 46.7409 21.6331 45.0421 20.7813C43.3631 19.9101 42.0791 18.6614 41.1902 17.0352C40.3013 15.409 39.8569 13.4537 39.8569 11.1693C39.8569 8.88486 40.3013 6.92956 41.1902 5.30336C42.0791 3.67717 43.3631 2.43816 45.0421 1.58635C46.7409 0.71517 48.7656 0.279583 51.1162 0.279583C53.4866 0.279583 55.5114 0.71517 57.1904 1.58635C58.8694 2.43816 60.1534 3.67717 61.0423 5.30336C61.9312 6.92956 62.3756 8.88486 62.3756 11.1693C62.3756 13.4537 61.9312 15.409 61.0423 17.0352C60.1534 18.6614 58.8694 19.9101 57.1904 20.7813C55.5114 21.6331 53.4866 22.059 51.1162 22.059ZM51.1162 17.1223C52.2619 17.1223 53.22 16.8997 53.9903 16.4544C54.7607 16.0091 55.3336 15.3509 55.7089 14.4797C56.104 13.5892 56.3015 12.4857 56.3015 11.1693C56.3015 9.85284 56.104 8.75903 55.7089 7.88785C55.3336 6.99732 54.7607 6.32941 53.9903 5.88415C53.22 5.43888 52.2619 5.21624 51.1162 5.21624C49.9706 5.21624 49.0125 5.43888 48.2421 5.88415C47.4718 6.32941 46.889 6.99732 46.494 7.88785C46.1187 8.75903 45.931 9.85284 45.931 11.1693C45.931 12.4857 46.1187 13.5892 46.494 14.4797C46.889 15.3509 47.4718 16.0091 48.2421 16.4544C49.0125 16.8997 49.9706 17.1223 51.1162 17.1223Z"
        fill="#8009A9" />
    <path
        d="M51.1162 22.059C48.7656 22.059 46.7409 21.6331 45.0421 20.7813C43.3631 19.9101 42.0791 18.6614 41.1902 17.0352C40.3013 15.409 39.8569 13.4537 39.8569 11.1693C39.8569 8.88486 40.3013 6.92956 41.1902 5.30336C42.0791 3.67717 43.3631 2.43816 45.0421 1.58635C46.7409 0.71517 48.7656 0.279583 51.1162 0.279583C53.4866 0.279583 55.5114 0.71517 57.1904 1.58635C58.8694 2.43816 60.1534 3.67717 61.0423 5.30336C61.9312 6.92956 62.3756 8.88486 62.3756 11.1693C62.3756 13.4537 61.9312 15.409 61.0423 17.0352C60.1534 18.6614 58.8694 19.9101 57.1904 20.7813C55.5114 21.6331 53.4866 22.059 51.1162 22.059ZM51.1162 17.1223C52.2619 17.1223 53.22 16.8997 53.9903 16.4544C54.7607 16.0091 55.3336 15.3509 55.7089 14.4797C56.104 13.5892 56.3015 12.4857 56.3015 11.1693C56.3015 9.85284 56.104 8.75903 55.7089 7.88785C55.3336 6.99732 54.7607 6.32941 53.9903 5.88415C53.22 5.43888 52.2619 5.21624 51.1162 5.21624C49.9706 5.21624 49.0125 5.43888 48.2421 5.88415C47.4718 6.32941 46.889 6.99732 46.494 7.88785C46.1187 8.75903 45.931 9.85284 45.931 11.1693C45.931 12.4857 46.1187 13.5892 46.494 14.4797C46.889 15.3509 47.4718 16.0091 48.2421 16.4544C49.0125 16.8997 49.9706 17.1223 51.1162 17.1223Z"
        fill="url(#paint6_linear_1_264)" />
    <path
        d="M51.1162 22.059C48.7656 22.059 46.7409 21.6331 45.0421 20.7813C43.3631 19.9101 42.0791 18.6614 41.1902 17.0352C40.3013 15.409 39.8569 13.4537 39.8569 11.1693C39.8569 8.88486 40.3013 6.92956 41.1902 5.30336C42.0791 3.67717 43.3631 2.43816 45.0421 1.58635C46.7409 0.71517 48.7656 0.279583 51.1162 0.279583C53.4866 0.279583 55.5114 0.71517 57.1904 1.58635C58.8694 2.43816 60.1534 3.67717 61.0423 5.30336C61.9312 6.92956 62.3756 8.88486 62.3756 11.1693C62.3756 13.4537 61.9312 15.409 61.0423 17.0352C60.1534 18.6614 58.8694 19.9101 57.1904 20.7813C55.5114 21.6331 53.4866 22.059 51.1162 22.059ZM51.1162 17.1223C52.2619 17.1223 53.22 16.8997 53.9903 16.4544C54.7607 16.0091 55.3336 15.3509 55.7089 14.4797C56.104 13.5892 56.3015 12.4857 56.3015 11.1693C56.3015 9.85284 56.104 8.75903 55.7089 7.88785C55.3336 6.99732 54.7607 6.32941 53.9903 5.88415C53.22 5.43888 52.2619 5.21624 51.1162 5.21624C49.9706 5.21624 49.0125 5.43888 48.2421 5.88415C47.4718 6.32941 46.889 6.99732 46.494 7.88785C46.1187 8.75903 45.931 9.85284 45.931 11.1693C45.931 12.4857 46.1187 13.5892 46.494 14.4797C46.889 15.3509 47.4718 16.0091 48.2421 16.4544C49.0125 16.8997 49.9706 17.1223 51.1162 17.1223Z"
        fill="url(#paint7_linear_1_264)" />
    <path
        d="M51.1162 22.059C48.7656 22.059 46.7409 21.6331 45.0421 20.7813C43.3631 19.9101 42.0791 18.6614 41.1902 17.0352C40.3013 15.409 39.8569 13.4537 39.8569 11.1693C39.8569 8.88486 40.3013 6.92956 41.1902 5.30336C42.0791 3.67717 43.3631 2.43816 45.0421 1.58635C46.7409 0.71517 48.7656 0.279583 51.1162 0.279583C53.4866 0.279583 55.5114 0.71517 57.1904 1.58635C58.8694 2.43816 60.1534 3.67717 61.0423 5.30336C61.9312 6.92956 62.3756 8.88486 62.3756 11.1693C62.3756 13.4537 61.9312 15.409 61.0423 17.0352C60.1534 18.6614 58.8694 19.9101 57.1904 20.7813C55.5114 21.6331 53.4866 22.059 51.1162 22.059ZM51.1162 17.1223C52.2619 17.1223 53.22 16.8997 53.9903 16.4544C54.7607 16.0091 55.3336 15.3509 55.7089 14.4797C56.104 13.5892 56.3015 12.4857 56.3015 11.1693C56.3015 9.85284 56.104 8.75903 55.7089 7.88785C55.3336 6.99732 54.7607 6.32941 53.9903 5.88415C53.22 5.43888 52.2619 5.21624 51.1162 5.21624C49.9706 5.21624 49.0125 5.43888 48.2421 5.88415C47.4718 6.32941 46.889 6.99732 46.494 7.88785C46.1187 8.75903 45.931 9.85284 45.931 11.1693C45.931 12.4857 46.1187 13.5892 46.494 14.4797C46.889 15.3509 47.4718 16.0091 48.2421 16.4544C49.0125 16.8997 49.9706 17.1223 51.1162 17.1223Z"
        fill="url(#paint8_linear_1_264)" />
    <path
        d="M65.0516 21.7686V0.569975H72.7554C75.7579 0.569975 78.0394 1.01524 79.5999 1.90578C81.1604 2.77695 81.9407 4.07404 81.9407 5.79703C81.9407 7.09411 81.5456 8.15888 80.7555 8.99134C79.9851 9.8238 78.8986 10.3465 77.4962 10.5595V10.6175C79.1357 10.8111 80.3801 11.3435 81.2295 12.2147C82.0987 13.0665 82.5332 14.2184 82.5332 15.6704C82.5332 17.6644 81.7234 19.1841 80.1036 20.2295C78.4838 21.2556 76.1332 21.7686 73.0517 21.7686H65.0516ZM73.0517 17.2675C74.2171 17.2675 75.0764 17.0933 75.6295 16.7448C76.1826 16.3963 76.4591 15.8639 76.4591 15.1476C76.4591 14.412 76.1826 13.8796 75.6295 13.5505C75.0961 13.2214 74.2369 13.0568 73.0517 13.0568H68.0146V8.70095H73.0517C74.1579 8.70095 74.9282 8.56543 75.3628 8.2944C75.7974 8.02337 76.0147 7.55874 76.0147 6.90052C76.0147 6.22294 75.7875 5.74863 75.3332 5.4776C74.8986 5.20656 74.1381 5.07105 73.0517 5.07105H70.9776V17.2675H73.0517Z"
        fill="#8009A9" />
    <path
        d="M65.0516 21.7686V0.569975H72.7554C75.7579 0.569975 78.0394 1.01524 79.5999 1.90578C81.1604 2.77695 81.9407 4.07404 81.9407 5.79703C81.9407 7.09411 81.5456 8.15888 80.7555 8.99134C79.9851 9.8238 78.8986 10.3465 77.4962 10.5595V10.6175C79.1357 10.8111 80.3801 11.3435 81.2295 12.2147C82.0987 13.0665 82.5332 14.2184 82.5332 15.6704C82.5332 17.6644 81.7234 19.1841 80.1036 20.2295C78.4838 21.2556 76.1332 21.7686 73.0517 21.7686H65.0516ZM73.0517 17.2675C74.2171 17.2675 75.0764 17.0933 75.6295 16.7448C76.1826 16.3963 76.4591 15.8639 76.4591 15.1476C76.4591 14.412 76.1826 13.8796 75.6295 13.5505C75.0961 13.2214 74.2369 13.0568 73.0517 13.0568H68.0146V8.70095H73.0517C74.1579 8.70095 74.9282 8.56543 75.3628 8.2944C75.7974 8.02337 76.0147 7.55874 76.0147 6.90052C76.0147 6.22294 75.7875 5.74863 75.3332 5.4776C74.8986 5.20656 74.1381 5.07105 73.0517 5.07105H70.9776V17.2675H73.0517Z"
        fill="url(#paint9_linear_1_264)" />
    <path
        d="M65.0516 21.7686V0.569975H72.7554C75.7579 0.569975 78.0394 1.01524 79.5999 1.90578C81.1604 2.77695 81.9407 4.07404 81.9407 5.79703C81.9407 7.09411 81.5456 8.15888 80.7555 8.99134C79.9851 9.8238 78.8986 10.3465 77.4962 10.5595V10.6175C79.1357 10.8111 80.3801 11.3435 81.2295 12.2147C82.0987 13.0665 82.5332 14.2184 82.5332 15.6704C82.5332 17.6644 81.7234 19.1841 80.1036 20.2295C78.4838 21.2556 76.1332 21.7686 73.0517 21.7686H65.0516ZM73.0517 17.2675C74.2171 17.2675 75.0764 17.0933 75.6295 16.7448C76.1826 16.3963 76.4591 15.8639 76.4591 15.1476C76.4591 14.412 76.1826 13.8796 75.6295 13.5505C75.0961 13.2214 74.2369 13.0568 73.0517 13.0568H68.0146V8.70095H73.0517C74.1579 8.70095 74.9282 8.56543 75.3628 8.2944C75.7974 8.02337 76.0147 7.55874 76.0147 6.90052C76.0147 6.22294 75.7875 5.74863 75.3332 5.4776C74.8986 5.20656 74.1381 5.07105 73.0517 5.07105H70.9776V17.2675H73.0517Z"
        fill="url(#paint10_linear_1_264)" />
    <path
        d="M65.0516 21.7686V0.569975H72.7554C75.7579 0.569975 78.0394 1.01524 79.5999 1.90578C81.1604 2.77695 81.9407 4.07404 81.9407 5.79703C81.9407 7.09411 81.5456 8.15888 80.7555 8.99134C79.9851 9.8238 78.8986 10.3465 77.4962 10.5595V10.6175C79.1357 10.8111 80.3801 11.3435 81.2295 12.2147C82.0987 13.0665 82.5332 14.2184 82.5332 15.6704C82.5332 17.6644 81.7234 19.1841 80.1036 20.2295C78.4838 21.2556 76.1332 21.7686 73.0517 21.7686H65.0516ZM73.0517 17.2675C74.2171 17.2675 75.0764 17.0933 75.6295 16.7448C76.1826 16.3963 76.4591 15.8639 76.4591 15.1476C76.4591 14.412 76.1826 13.8796 75.6295 13.5505C75.0961 13.2214 74.2369 13.0568 73.0517 13.0568H68.0146V8.70095H73.0517C74.1579 8.70095 74.9282 8.56543 75.3628 8.2944C75.7974 8.02337 76.0147 7.55874 76.0147 6.90052C76.0147 6.22294 75.7875 5.74863 75.3332 5.4776C74.8986 5.20656 74.1381 5.07105 73.0517 5.07105H70.9776V17.2675H73.0517Z"
        fill="url(#paint11_linear_1_264)" />
    <path
        d="M85.1907 21.7686V0.569975H100.895V5.21624H91.1167V8.64287H100.302V13.1149H91.1167V17.1223H100.895V21.7686H85.1907Z"
        fill="#8009A9" />
    <path
        d="M85.1907 21.7686V0.569975H100.895V5.21624H91.1167V8.64287H100.302V13.1149H91.1167V17.1223H100.895V21.7686H85.1907Z"
        fill="url(#paint12_linear_1_264)" />
    <path
        d="M85.1907 21.7686V0.569975H100.895V5.21624H91.1167V8.64287H100.302V13.1149H91.1167V17.1223H100.895V21.7686H85.1907Z"
        fill="url(#paint13_linear_1_264)" />
    <path
        d="M85.1907 21.7686V0.569975H100.895V5.21624H91.1167V8.64287H100.302V13.1149H91.1167V17.1223H100.895V21.7686H85.1907Z"
        fill="url(#paint14_linear_1_264)" />
    <path d="M104.172 21.7686V0.569975H110.247V16.8319H120.469V21.7686H104.172Z" fill="#8009A9" />
    <path d="M104.172 21.7686V0.569975H110.247V16.8319H120.469V21.7686H104.172Z"
        fill="url(#paint15_linear_1_264)" />
    <path d="M104.172 21.7686V0.569975H110.247V16.8319H120.469V21.7686H104.172Z"
        fill="url(#paint16_linear_1_264)" />
    <path d="M104.172 21.7686V0.569975H110.247V16.8319H120.469V21.7686H104.172Z"
        fill="url(#paint17_linear_1_264)" />
    <defs>
        <linearGradient id="paint0_linear_1_264" x1="124.264" y1="17.272" x2="-2.59415" y2="17.1569"
            gradientUnits="userSpaceOnUse">
            <stop stop-color="#4E0C65" />
            <stop offset="1" stop-color="#220952" />
        </linearGradient>
        <linearGradient id="paint1_linear_1_264" x1="-16.7163" y1="-2.24555" x2="-12.5904"
            y2="37.6285" gradientUnits="userSpaceOnUse">
            <stop stop-color="#F95E49" />
            <stop offset="0.515625" stop-color="#CC306A" />
            <stop offset="1" stop-color="#383C6C" />
        </linearGradient>
        <linearGradient id="paint2_linear_1_264" x1="0.0416108" y1="11.2464" x2="120.469"
            y2="11.2464" gradientUnits="userSpaceOnUse">
            <stop stop-color="#3D387A" />
            <stop offset="1" stop-color="#9F3259" />
        </linearGradient>
        <linearGradient id="paint3_linear_1_264" x1="124.264" y1="17.272" x2="-2.59415" y2="17.1569"
            gradientUnits="userSpaceOnUse">
            <stop stop-color="#4E0C65" />
            <stop offset="1" stop-color="#220952" />
        </linearGradient>
        <linearGradient id="paint4_linear_1_264" x1="-16.7163" y1="-2.24555" x2="-12.5904"
            y2="37.6285" gradientUnits="userSpaceOnUse">
            <stop stop-color="#F95E49" />
            <stop offset="0.515625" stop-color="#CC306A" />
            <stop offset="1" stop-color="#383C6C" />
        </linearGradient>
        <linearGradient id="paint5_linear_1_264" x1="0.0416108" y1="11.2464" x2="120.469"
            y2="11.2464" gradientUnits="userSpaceOnUse">
            <stop stop-color="#3D387A" />
            <stop offset="1" stop-color="#9F3259" />
        </linearGradient>
        <linearGradient id="paint6_linear_1_264" x1="124.264" y1="17.272" x2="-2.59415" y2="17.1569"
            gradientUnits="userSpaceOnUse">
            <stop stop-color="#4E0C65" />
            <stop offset="1" stop-color="#220952" />
        </linearGradient>
        <linearGradient id="paint7_linear_1_264" x1="-16.7163" y1="-2.24555" x2="-12.5904"
            y2="37.6285" gradientUnits="userSpaceOnUse">
            <stop stop-color="#F95E49" />
            <stop offset="0.515625" stop-color="#CC306A" />
            <stop offset="1" stop-color="#383C6C" />
        </linearGradient>
        <linearGradient id="paint8_linear_1_264" x1="0.0416108" y1="11.2464" x2="120.469"
            y2="11.2464" gradientUnits="userSpaceOnUse">
            <stop stop-color="#3D387A" />
            <stop offset="1" stop-color="#9F3259" />
        </linearGradient>
        <linearGradient id="paint9_linear_1_264" x1="124.264" y1="17.272" x2="-2.59415" y2="17.1569"
            gradientUnits="userSpaceOnUse">
            <stop stop-color="#4E0C65" />
            <stop offset="1" stop-color="#220952" />
        </linearGradient>
        <linearGradient id="paint10_linear_1_264" x1="-16.7163" y1="-2.24555" x2="-12.5904"
            y2="37.6285" gradientUnits="userSpaceOnUse">
            <stop stop-color="#F95E49" />
            <stop offset="0.515625" stop-color="#CC306A" />
            <stop offset="1" stop-color="#383C6C" />
        </linearGradient>
        <linearGradient id="paint11_linear_1_264" x1="0.0416108" y1="11.2464" x2="120.469"
            y2="11.2464" gradientUnits="userSpaceOnUse">
            <stop stop-color="#3D387A" />
            <stop offset="1" stop-color="#9F3259" />
        </linearGradient>
        <linearGradient id="paint12_linear_1_264" x1="124.264" y1="17.272" x2="-2.59415"
            y2="17.1569" gradientUnits="userSpaceOnUse">
            <stop stop-color="#4E0C65" />
            <stop offset="1" stop-color="#220952" />
        </linearGradient>
        <linearGradient id="paint13_linear_1_264" x1="-16.7163" y1="-2.24555" x2="-12.5904"
            y2="37.6285" gradientUnits="userSpaceOnUse">
            <stop stop-color="#F95E49" />
            <stop offset="0.515625" stop-color="#CC306A" />
            <stop offset="1" stop-color="#383C6C" />
        </linearGradient>
        <linearGradient id="paint14_linear_1_264" x1="0.0416108" y1="11.2464" x2="120.469"
            y2="11.2464" gradientUnits="userSpaceOnUse">
            <stop stop-color="#3D387A" />
            <stop offset="1" stop-color="#9F3259" />
        </linearGradient>
        <linearGradient id="paint15_linear_1_264" x1="124.264" y1="17.272" x2="-2.59415"
            y2="17.1569" gradientUnits="userSpaceOnUse">
            <stop stop-color="#4E0C65" />
            <stop offset="1" stop-color="#220952" />
        </linearGradient>
        <linearGradient id="paint16_linear_1_264" x1="-16.7163" y1="-2.24555" x2="-12.5904"
            y2="37.6285" gradientUnits="userSpaceOnUse">
            <stop stop-color="#F95E49" />
            <stop offset="0.515625" stop-color="#CC306A" />
            <stop offset="1" stop-color="#383C6C" />
        </linearGradient>
        <linearGradient id="paint17_linear_1_264" x1="0.0416108" y1="11.2464" x2="120.469"
            y2="11.2464" gradientUnits="userSpaceOnUse">
            <stop stop-color="#3D387A" />
            <stop offset="1" stop-color="#9F3259" />
        </linearGradient>
    </defs>
</svg>