<svg xmlns="http://www.w3.org/2000/svg" width="571" height="510" viewBox="0 0 571 510" fill="none">
    <path opacity="0.3"
        d="M65.6772 143.364H66.6067L67.0204 142.531C88.666 98.9916 122.601 62.2946 165.055 37.1725C218.745 5.4026 282.312 -5.6376 343.659 6.15409C404.51 17.8505 458.962 51.2007 496.83 99.9249L427.046 152.86C402.244 121.146 366.694 99.4435 326.99 91.8117C286.795 84.0858 245.145 91.319 209.966 112.136C182.845 128.184 161.028 151.443 146.806 179.04L50.2636 179.04H-11.2105V143.364H65.6772ZM40.6877 251.466L40.707 249.947H39.1878H-11.2105V207.824L135.246 207.824C124.011 245.76 126.771 286.481 143.097 322.621C159.869 359.75 189.788 389.452 227.157 406.076C247.306 415.04 268.864 419.864 290.57 420.478V420.545H292.07L569.413 420.544V456.221H449.862H449.361L448.961 456.522C426.039 473.761 400.161 487.16 372.308 495.942C312.749 514.721 248.323 511.079 191.291 485.708C134.259 460.336 88.604 415.009 63.0111 358.353C47.7148 324.491 40.2231 287.995 40.6877 251.466ZM389.253 391.76C409.267 378.207 426.237 360.374 438.797 339.341C446.764 325.999 452.744 311.725 456.661 296.954L457.161 295.07H455.211H338.964V207.825L543.474 207.825V208.177L545.259 207.831L545.551 207.775C554.934 257.246 549.223 308.123 529.537 353.992L528.639 356.084H530.915H569.413V391.76L389.253 391.76Z"
        stroke="url(#paint0_linear_1_286)" stroke-width="3" />
    <defs>
        <linearGradient id="paint0_linear_1_286" x1="308.282" y1="-80.1084" x2="333.357"
            y2="822.218" gradientUnits="userSpaceOnUse">
            <stop stop-color="#FD749B" />
            <stop offset="1" stop-color="#281AC8" />
        </linearGradient>
    </defs>
</svg>