<svg width="64" height="56" viewBox="0 0 64 56" fill="none" xmlns="http://www.w3.org/2000/svg">
    <path
        d="M24.3321 12.3465C28.1287 10.0999 32.6237 9.31925 36.9617 10.1531C41.2998 10.9869 45.178 13.377 47.8584 16.8685L55.7177 10.9067C51.5658 5.49825 45.5583 1.79593 38.8386 0.504333C32.119 -0.78727 25.1561 0.421994 19.2751 3.902C14.6247 6.65383 10.9074 10.6736 8.53625 15.4432H0V19.655H6.85774V19.655L17.4709 19.655C19.0044 16.6382 21.3763 14.0956 24.3321 12.3465Z"
        fill="#8009A9" />
    <path
        d="M24.3321 12.3465C28.1287 10.0999 32.6237 9.31925 36.9617 10.1531C41.2998 10.9869 45.178 13.377 47.8584 16.8685L55.7177 10.9067C51.5658 5.49825 45.5583 1.79593 38.8386 0.504333C32.119 -0.78727 25.1561 0.421994 19.2751 3.902C14.6247 6.65383 10.9074 10.6736 8.53625 15.4432H0V19.655H6.85774V19.655L17.4709 19.655C19.0044 16.6382 21.3763 14.0956 24.3321 12.3465Z"
        fill="url(#paint0_linear_1_262)" />
    <path
        d="M24.3321 12.3465C28.1287 10.0999 32.6237 9.31925 36.9617 10.1531C41.2998 10.9869 45.178 13.377 47.8584 16.8685L55.7177 10.9067C51.5658 5.49825 45.5583 1.79593 38.8386 0.504333C32.119 -0.78727 25.1561 0.421994 19.2751 3.902C14.6247 6.65383 10.9074 10.6736 8.53625 15.4432H0V19.655H6.85774V19.655L17.4709 19.655C19.0044 16.6382 21.3763 14.0956 24.3321 12.3465Z"
        fill="url(#paint1_linear_1_262)" />
    <path
        d="M24.3321 12.3465C28.1287 10.0999 32.6237 9.31925 36.9617 10.1531C41.2998 10.9869 45.178 13.377 47.8584 16.8685L55.7177 10.9067C51.5658 5.49825 45.5583 1.79593 38.8386 0.504333C32.119 -0.78727 25.1561 0.421994 19.2751 3.902C14.6247 6.65383 10.9074 10.6736 8.53625 15.4432H0V19.655H6.85774V19.655L17.4709 19.655C19.0044 16.6382 21.3763 14.0956 24.3321 12.3465Z"
        fill="url(#paint2_linear_1_262)" />
    <path
        d="M5.65161 27.3765H0V22.4628L16.3323 22.4628C15.0466 26.6157 15.3241 31.0935 17.1159 35.06C18.9258 39.0666 22.1544 42.272 26.1874 44.0661C28.4111 45.0553 30.7937 45.5774 33.1899 45.6241V45.6276L63.5553 45.6276V49.8393H50.3731C47.8623 51.7277 45.0276 53.1954 41.9768 54.1573C35.4529 56.2143 28.396 55.8153 22.1489 53.0362C15.9018 50.2572 10.9006 45.292 8.09705 39.0856C6.42141 35.3762 5.60071 31.3782 5.65161 27.3765Z"
        fill="#8009A9" />
    <path
        d="M5.65161 27.3765H0V22.4628L16.3323 22.4628C15.0466 26.6157 15.3241 31.0935 17.1159 35.06C18.9258 39.0666 22.1544 42.272 26.1874 44.0661C28.4111 45.0553 30.7937 45.5774 33.1899 45.6241V45.6276L63.5553 45.6276V49.8393H50.3731C47.8623 51.7277 45.0276 53.1954 41.9768 54.1573C35.4529 56.2143 28.396 55.8153 22.1489 53.0362C15.9018 50.2572 10.9006 45.292 8.09705 39.0856C6.42141 35.3762 5.60071 31.3782 5.65161 27.3765Z"
        fill="url(#paint3_linear_1_262)" />
    <path
        d="M5.65161 27.3765H0V22.4628L16.3323 22.4628C15.0466 26.6157 15.3241 31.0935 17.1159 35.06C18.9258 39.0666 22.1544 42.272 26.1874 44.0661C28.4111 45.0553 30.7937 45.5774 33.1899 45.6241V45.6276L63.5553 45.6276V49.8393H50.3731C47.8623 51.7277 45.0276 53.1954 41.9768 54.1573C35.4529 56.2143 28.396 55.8153 22.1489 53.0362C15.9018 50.2572 10.9006 45.292 8.09705 39.0856C6.42141 35.3762 5.60071 31.3782 5.65161 27.3765Z"
        fill="url(#paint4_linear_1_262)" />
    <path
        d="M5.65161 27.3765H0V22.4628L16.3323 22.4628C15.0466 26.6157 15.3241 31.0935 17.1159 35.06C18.9258 39.0666 22.1544 42.272 26.1874 44.0661C28.4111 45.0553 30.7937 45.5774 33.1899 45.6241V45.6276L63.5553 45.6276V49.8393H50.3731C47.8623 51.7277 45.0276 53.1954 41.9768 54.1573C35.4529 56.2143 28.396 55.8153 22.1489 53.0362C15.9018 50.2572 10.9006 45.292 8.09705 39.0856C6.42141 35.3762 5.60071 31.3782 5.65161 27.3765Z"
        fill="url(#paint5_linear_1_262)" />
    <path
        d="M43.2257 42.8197C45.584 41.3246 47.5783 39.292 49.0279 36.8643C49.8876 35.4246 50.5329 33.8842 50.9556 32.2903L38.1332 32.2903V22.4628L60.7306 22.4628V22.4665L60.9228 22.4293C61.994 27.8992 61.3775 33.5334 59.1996 38.6079H63.5553V42.8197L43.2257 42.8197Z"
        fill="#8009A9" />
    <path
        d="M43.2257 42.8197C45.584 41.3246 47.5783 39.292 49.0279 36.8643C49.8876 35.4246 50.5329 33.8842 50.9556 32.2903L38.1332 32.2903V22.4628L60.7306 22.4628V22.4665L60.9228 22.4293C61.994 27.8992 61.3775 33.5334 59.1996 38.6079H63.5553V42.8197L43.2257 42.8197Z"
        fill="url(#paint6_linear_1_262)" />
    <path
        d="M43.2257 42.8197C45.584 41.3246 47.5783 39.292 49.0279 36.8643C49.8876 35.4246 50.5329 33.8842 50.9556 32.2903L38.1332 32.2903V22.4628L60.7306 22.4628V22.4665L60.9228 22.4293C61.994 27.8992 61.3775 33.5334 59.1996 38.6079H63.5553V42.8197L43.2257 42.8197Z"
        fill="url(#paint7_linear_1_262)" />
    <path
        d="M43.2257 42.8197C45.584 41.3246 47.5783 39.292 49.0279 36.8643C49.8876 35.4246 50.5329 33.8842 50.9556 32.2903L38.1332 32.2903V22.4628L60.7306 22.4628V22.4665L60.9228 22.4293C61.994 27.8992 61.3775 33.5334 59.1996 38.6079H63.5553V42.8197L43.2257 42.8197Z"
        fill="url(#paint8_linear_1_262)" />
    <defs>
        <linearGradient id="paint0_linear_1_262" x1="65.5579" y1="43.2663" x2="-1.39107"
            y2="43.2537" gradientUnits="userSpaceOnUse">
            <stop stop-color="#4E0C65" />
            <stop offset="1" stop-color="#220952" />
        </linearGradient>
        <linearGradient id="paint1_linear_1_262" x1="-8.84393" y1="-6.42954" x2="32.1637"
            y2="75.7135" gradientUnits="userSpaceOnUse">
            <stop stop-color="#F95E49" />
            <stop offset="0.515625" stop-color="#CC306A" />
            <stop offset="1" stop-color="#383C6C" />
        </linearGradient>
        <linearGradient id="paint2_linear_1_262" x1="6.27338e-08" y1="27.924" x2="63.5553"
            y2="27.924" gradientUnits="userSpaceOnUse">
            <stop stop-color="#3D387A" />
            <stop offset="1" stop-color="#9F3259" />
        </linearGradient>
        <linearGradient id="paint3_linear_1_262" x1="65.5579" y1="43.2663" x2="-1.39107"
            y2="43.2537" gradientUnits="userSpaceOnUse">
            <stop stop-color="#4E0C65" />
            <stop offset="1" stop-color="#220952" />
        </linearGradient>
        <linearGradient id="paint4_linear_1_262" x1="-8.84393" y1="-6.42954" x2="32.1637"
            y2="75.7135" gradientUnits="userSpaceOnUse">
            <stop stop-color="#F95E49" />
            <stop offset="0.515625" stop-color="#CC306A" />
            <stop offset="1" stop-color="#383C6C" />
        </linearGradient>
        <linearGradient id="paint5_linear_1_262" x1="6.27338e-08" y1="27.924" x2="63.5553"
            y2="27.924" gradientUnits="userSpaceOnUse">
            <stop stop-color="#3D387A" />
            <stop offset="1" stop-color="#9F3259" />
        </linearGradient>
        <linearGradient id="paint6_linear_1_262" x1="65.5579" y1="43.2663" x2="-1.39107"
            y2="43.2537" gradientUnits="userSpaceOnUse">
            <stop stop-color="#4E0C65" />
            <stop offset="1" stop-color="#220952" />
        </linearGradient>
        <linearGradient id="paint7_linear_1_262" x1="-8.84393" y1="-6.42954" x2="32.1637"
            y2="75.7135" gradientUnits="userSpaceOnUse">
            <stop stop-color="#F95E49" />
            <stop offset="0.515625" stop-color="#CC306A" />
            <stop offset="1" stop-color="#383C6C" />
        </linearGradient>
        <linearGradient id="paint8_linear_1_262" x1="6.27338e-08" y1="27.924" x2="63.5553"
            y2="27.924" gradientUnits="userSpaceOnUse">
            <stop stop-color="#3D387A" />
            <stop offset="1" stop-color="#9F3259" />
        </linearGradient>
    </defs>
</svg>